<svg xmlns="http://www.w3.org/2000/svg" viewBox="0 0 448.99 204.63"><defs><style>.cls-1{fill:#fff;}.cls-2{fill:#f5a60c;}</style></defs><g id="Camada_2" data-name="Camada 2"><g id="Camada_1-2" data-name="Camada 1"><path class="cls-1" d="M415.71,181.65a10.48,10.48,0,0,1-7.36-3l-10.07-9.86a55.93,55.93,0,0,1-24.15,1.46,56.47,56.47,0,1,1,64.52-47.07,10.53,10.53,0,0,1-20.8-3.26,35.41,35.41,0,1,0-24.7,28.43,19.18,19.18,0,0,1,19,4.54l10.94,10.71a10.53,10.53,0,0,1-7.37,18.06Z"/><circle class="cls-2" cx="437.15" cy="192.79" r="11.84"/><path class="cls-1" d="M0,12.89A4.56,4.56,0,0,1,4.54,8.35H82.66a4.55,4.55,0,0,1,4.54,4.54V25.05a4.56,4.56,0,0,1-4.54,4.54H27.54A4.56,4.56,0,0,0,23,34.13V80.41A4.56,4.56,0,0,0,27.54,85H56.76a4.56,4.56,0,0,1,4.54,4.54v13.93A4.56,4.56,0,0,1,56.76,108H27.54A4.56,4.56,0,0,0,23,112.5v25.8a4.56,4.56,0,0,0,4.55,4.54H82.66a4.55,4.55,0,0,1,4.54,4.54v12.35a4.55,4.55,0,0,1-4.54,4.54H4.54A4.56,4.56,0,0,1,0,159.73Z"/><path class="cls-1" d="M143.06,163.3c-21.91-4.18-38.6-22.54-41.69-44.64A53.16,53.16,0,0,1,184.3,67.25V5.89A5.88,5.88,0,0,1,190.19,0h11.23a5.88,5.88,0,0,1,5.89,5.89V158a5.88,5.88,0,0,1-5.89,5.89h-3.21A13.91,13.91,0,0,1,184.28,150C179.42,156.91,164,167.28,143.06,163.3Zm11-82.55A30.23,30.23,0,1,0,184.28,111,30.28,30.28,0,0,0,154.05,80.75Z"/><path class="cls-1" d="M220.94,117.49V64.54a5.45,5.45,0,0,1,5.45-5.46h12.1a5.45,5.45,0,0,1,5.45,5.46v54.78a23,23,0,0,0,25.2,22.82c11.92-1.16,20.64-11.87,20.64-23.83V65.5a5.44,5.44,0,0,1,5.44-5.45h12.1a5.45,5.45,0,0,1,5.45,5.45v93a5.44,5.44,0,0,1-5.43,5.43h-7.53a10,10,0,0,1-10-10c-2.37,6.19-18,12.36-28.51,11C237.9,161.91,220.91,141,220.94,117.49Z"/></g></g></svg>