<svg xmlns="http://www.w3.org/2000/svg" viewBox="0 0 41.79 50"><defs><style>.cls-1{fill:#2742d5;}.cls-2{fill:#f5a60c;}</style></defs><g id="Camada_2" data-name="Camada 2"><g id="Camada_1-2" data-name="Camada 1"><path class="cls-1" d="M30.44,42.16a3.6,3.6,0,0,1-2.51-1L24.5,37.78A19.26,19.26,0,1,1,38.26,22.23a3.59,3.59,0,1,1-7.09-1.11A12.07,12.07,0,0,0,7.61,16a12,12,0,0,0,1.5,9.79,12.05,12.05,0,0,0,13.64,5,6.51,6.51,0,0,1,6.47,1.55L33,36a3.58,3.58,0,0,1-2.51,6.15Z"/><circle class="cls-2" cx="37.75" cy="45.96" r="4.04"/></g></g></svg>